<svg id="visual" viewBox="0 0 900 300" width="900" height="300" xmlns="http://www.w3.org/2000/svg" xmlns:xlink="http://www.w3.org/1999/xlink" version="1.1"><path d="M0 161L30 168.5C60 176 120 191 180 201.8C240 212.7 300 219.3 360 208C420 196.7 480 167.3 540 155.7C600 144 660 150 720 161.8C780 173.7 840 191.3 870 200.2L900 209L900 0L870 0C840 0 780 0 720 0C660 0 600 0 540 0C480 0 420 0 360 0C300 0 240 0 180 0C120 0 60 0 30 0L0 0Z" fill="#e1e7f4"></path><path d="M0 82L30 80.5C60 79 120 76 180 84C240 92 300 111 360 122.3C420 133.7 480 137.3 540 143.7C600 150 660 159 720 148.2C780 137.3 840 106.7 870 91.3L900 76L900 0L870 0C840 0 780 0 720 0C660 0 600 0 540 0C480 0 420 0 360 0C300 0 240 0 180 0C120 0 60 0 30 0L0 0Z" fill="#cbd7f2"></path><path d="M0 105L30 100C60 95 120 85 180 74.2C240 63.3 300 51.7 360 48.5C420 45.3 480 50.7 540 55.2C600 59.7 660 63.3 720 66.7C780 70 840 73 870 74.5L900 76L900 0L870 0C840 0 780 0 720 0C660 0 600 0 540 0C480 0 420 0 360 0C300 0 240 0 180 0C120 0 60 0 30 0L0 0Z" fill="#b5c6ef"></path></svg>