<svg id="visual" viewBox="0 0 900 300" width="900" height="300" xmlns="http://www.w3.org/2000/svg" xmlns:xlink="http://www.w3.org/1999/xlink" version="1.1"><path d="M0 279L13.7 271.7C27.3 264.3 54.7 249.7 82 241.7C109.3 233.7 136.7 232.3 163.8 237C191 241.7 218 252.3 245.2 240.2C272.3 228 299.7 193 327 191.5C354.3 190 381.7 222 409 221.8C436.3 221.7 463.7 189.3 491 196.7C518.3 204 545.7 251 573 258.7C600.3 266.3 627.7 234.7 654.8 225.8C682 217 709 231 736.2 222.2C763.3 213.3 790.7 181.7 818 182C845.3 182.3 872.7 214.7 886.3 230.8L900 247L900 0L886.3 0C872.7 0 845.3 0 818 0C790.7 0 763.3 0 736.2 0C709 0 682 0 654.8 0C627.7 0 600.3 0 573 0C545.7 0 518.3 0 491 0C463.7 0 436.3 0 409 0C381.7 0 354.3 0 327 0C299.7 0 272.3 0 245.2 0C218 0 191 0 163.8 0C136.7 0 109.3 0 82 0C54.7 0 27.3 0 13.7 0L0 0Z" fill="#cbd7f4"></path><path d="M0 109L13.7 129.8C27.3 150.7 54.7 192.3 82 195.8C109.3 199.3 136.7 164.7 163.8 160.8C191 157 218 184 245.2 190C272.3 196 299.7 181 327 177.8C354.3 174.7 381.7 183.3 409 184.8C436.3 186.3 463.7 180.7 491 179.3C518.3 178 545.7 181 573 181.8C600.3 182.7 627.7 181.3 654.8 183.2C682 185 709 190 736.2 191.5C763.3 193 790.7 191 818 185.5C845.3 180 872.7 171 886.3 166.5L900 162L900 0L886.3 0C872.7 0 845.3 0 818 0C790.7 0 763.3 0 736.2 0C709 0 682 0 654.8 0C627.7 0 600.3 0 573 0C545.7 0 518.3 0 491 0C463.7 0 436.3 0 409 0C381.7 0 354.3 0 327 0C299.7 0 272.3 0 245.2 0C218 0 191 0 163.8 0C136.7 0 109.3 0 82 0C54.7 0 27.3 0 13.7 0L0 0Z" fill="#a3aec8"></path><path d="M0 91L13.7 91.8C27.3 92.7 54.7 94.3 82 96.3C109.3 98.3 136.7 100.7 163.8 112.5C191 124.3 218 145.7 245.2 156C272.3 166.3 299.7 165.7 327 161.7C354.3 157.7 381.7 150.3 409 139.8C436.3 129.3 463.7 115.7 491 103.7C518.3 91.7 545.7 81.3 573 77.2C600.3 73 627.7 75 654.8 91C682 107 709 137 736.2 144.7C763.3 152.3 790.7 137.7 818 136C845.3 134.3 872.7 145.7 886.3 151.3L900 157L900 0L886.3 0C872.7 0 845.3 0 818 0C790.7 0 763.3 0 736.2 0C709 0 682 0 654.8 0C627.7 0 600.3 0 573 0C545.7 0 518.3 0 491 0C463.7 0 436.3 0 409 0C381.7 0 354.3 0 327 0C299.7 0 272.3 0 245.2 0C218 0 191 0 163.8 0C136.7 0 109.3 0 82 0C54.7 0 27.3 0 13.7 0L0 0Z" fill="#7d869d"></path><path d="M0 80L13.7 69C27.3 58 54.7 36 82 36C109.3 36 136.7 58 163.8 60.8C191 63.7 218 47.3 245.2 45.3C272.3 43.3 299.7 55.7 327 65.8C354.3 76 381.7 84 409 91.8C436.3 99.7 463.7 107.3 491 100.8C518.3 94.3 545.7 73.7 573 69.5C600.3 65.3 627.7 77.7 654.8 87C682 96.3 709 102.7 736.2 94.3C763.3 86 790.7 63 818 50.2C845.3 37.3 872.7 34.7 886.3 33.3L900 32L900 0L886.3 0C872.7 0 845.3 0 818 0C790.7 0 763.3 0 736.2 0C709 0 682 0 654.8 0C627.7 0 600.3 0 573 0C545.7 0 518.3 0 491 0C463.7 0 436.3 0 409 0C381.7 0 354.3 0 327 0C299.7 0 272.3 0 245.2 0C218 0 191 0 163.8 0C136.7 0 109.3 0 82 0C54.7 0 27.3 0 13.7 0L0 0Z" fill="#596175"></path></svg>